<mxfile host="app.diagrams.net" modified="2022-12-22T13:20:19.165Z" agent="5.0 (Windows NT 10.0; Win64; x64) AppleWebKit/537.36 (KHTML, like Gecko) Chrome/108.0.0.0 Safari/537.36 Edg/108.0.1462.54" version="20.7.4" etag="yk3L2AgA_wOWlhXONXEt" type="github">
  <diagram id="6FLrMFgQbfJtDDahF8CN" name="Page-1">
    <mxGraphModel dx="1002" dy="573" grid="1" gridSize="10" guides="1" tooltips="1" connect="1" arrows="1" fold="1" page="1" pageScale="1" pageWidth="850" pageHeight="1100" math="0" shadow="0">
      <root>
        <mxCell id="0" />
        <mxCell id="1" parent="0" />
        <mxCell id="5yiq2FlFYGB0BDq1m2_S-1" value="" style="edgeStyle=orthogonalEdgeStyle;rounded=0;orthogonalLoop=1;jettySize=auto;html=1;" edge="1" parent="1" source="5yiq2FlFYGB0BDq1m2_S-2" target="5yiq2FlFYGB0BDq1m2_S-3">
          <mxGeometry relative="1" as="geometry" />
        </mxCell>
        <mxCell id="5yiq2FlFYGB0BDq1m2_S-2" value="START&lt;br&gt;disp_line_plot(dentist_role: str)" style="ellipse;whiteSpace=wrap;html=1;rounded=0;" vertex="1" parent="1">
          <mxGeometry x="139.07" width="178.12" height="80" as="geometry" />
        </mxCell>
        <mxCell id="5yiq2FlFYGB0BDq1m2_S-3" value="Initialise col_index,&amp;nbsp;total_dentists_by_role_yearly to []" style="whiteSpace=wrap;html=1;rounded=0;" vertex="1" parent="1">
          <mxGeometry x="85" y="160" width="286.25" height="50" as="geometry" />
        </mxCell>
        <mxCell id="5yiq2FlFYGB0BDq1m2_S-4" value="import data&lt;br&gt;import numpy as np&lt;br&gt;import matplotlib.pyplot as plt" style="rounded=0;whiteSpace=wrap;html=1;glass=0;dashed=1;" vertex="1" parent="1">
          <mxGeometry x="268.12" y="90" width="181.88" height="60" as="geometry" />
        </mxCell>
        <mxCell id="5yiq2FlFYGB0BDq1m2_S-5" value="" style="endArrow=none;dashed=1;html=1;rounded=0;strokeColor=default;entryX=0;entryY=0.5;entryDx=0;entryDy=0;" edge="1" parent="1" target="5yiq2FlFYGB0BDq1m2_S-4">
          <mxGeometry width="50" height="50" relative="1" as="geometry">
            <mxPoint x="228" y="120" as="sourcePoint" />
            <mxPoint x="420.12" y="340" as="targetPoint" />
          </mxGeometry>
        </mxCell>
        <mxCell id="5yiq2FlFYGB0BDq1m2_S-6" value="" style="edgeStyle=orthogonalEdgeStyle;rounded=0;orthogonalLoop=1;jettySize=auto;html=1;" edge="1" parent="1" target="5yiq2FlFYGB0BDq1m2_S-8">
          <mxGeometry relative="1" as="geometry">
            <mxPoint x="228.375" y="210" as="sourcePoint" />
          </mxGeometry>
        </mxCell>
        <mxCell id="5yiq2FlFYGB0BDq1m2_S-7" value="" style="edgeStyle=orthogonalEdgeStyle;rounded=0;orthogonalLoop=1;jettySize=auto;html=1;" edge="1" parent="1" source="5yiq2FlFYGB0BDq1m2_S-8" target="5yiq2FlFYGB0BDq1m2_S-11">
          <mxGeometry relative="1" as="geometry" />
        </mxCell>
        <mxCell id="5yiq2FlFYGB0BDq1m2_S-8" value="for each i, d in enumerate(data.row_header)" style="rounded=0;whiteSpace=wrap;html=1;" vertex="1" parent="1">
          <mxGeometry x="145.87" y="250" width="165" height="40" as="geometry" />
        </mxCell>
        <mxCell id="5yiq2FlFYGB0BDq1m2_S-9" value="" style="edgeStyle=orthogonalEdgeStyle;rounded=0;orthogonalLoop=1;jettySize=auto;html=1;" edge="1" parent="1" source="5yiq2FlFYGB0BDq1m2_S-11" target="5yiq2FlFYGB0BDq1m2_S-14">
          <mxGeometry relative="1" as="geometry" />
        </mxCell>
        <mxCell id="5yiq2FlFYGB0BDq1m2_S-24" style="edgeStyle=orthogonalEdgeStyle;rounded=0;orthogonalLoop=1;jettySize=auto;html=1;exitX=0;exitY=0.5;exitDx=0;exitDy=0;entryX=0;entryY=0.5;entryDx=0;entryDy=0;" edge="1" parent="1" source="5yiq2FlFYGB0BDq1m2_S-11" target="5yiq2FlFYGB0BDq1m2_S-23">
          <mxGeometry relative="1" as="geometry">
            <mxPoint x="120" y="470" as="targetPoint" />
            <Array as="points">
              <mxPoint x="120" y="370" />
              <mxPoint x="120" y="465" />
            </Array>
          </mxGeometry>
        </mxCell>
        <mxCell id="5yiq2FlFYGB0BDq1m2_S-11" value="i, d in sequence&lt;br&gt;?" style="rhombus;whiteSpace=wrap;html=1;" vertex="1" parent="1">
          <mxGeometry x="188.37" y="330" width="80" height="80" as="geometry" />
        </mxCell>
        <mxCell id="5yiq2FlFYGB0BDq1m2_S-12" value="" style="edgeStyle=orthogonalEdgeStyle;rounded=0;orthogonalLoop=1;jettySize=auto;html=1;" edge="1" parent="1" source="5yiq2FlFYGB0BDq1m2_S-14" target="5yiq2FlFYGB0BDq1m2_S-17">
          <mxGeometry relative="1" as="geometry" />
        </mxCell>
        <mxCell id="5yiq2FlFYGB0BDq1m2_S-13" style="edgeStyle=orthogonalEdgeStyle;rounded=0;orthogonalLoop=1;jettySize=auto;html=1;exitX=0.5;exitY=0;exitDx=0;exitDy=0;" edge="1" parent="1" source="5yiq2FlFYGB0BDq1m2_S-14">
          <mxGeometry relative="1" as="geometry">
            <mxPoint x="229" y="310" as="targetPoint" />
            <Array as="points">
              <mxPoint x="365" y="310" />
            </Array>
          </mxGeometry>
        </mxCell>
        <mxCell id="5yiq2FlFYGB0BDq1m2_S-14" value="dentist_role in d.lower()&lt;br&gt;?" style="rhombus;whiteSpace=wrap;html=1;" vertex="1" parent="1">
          <mxGeometry x="304" y="330" width="122.5" height="80" as="geometry" />
        </mxCell>
        <mxCell id="5yiq2FlFYGB0BDq1m2_S-15" value="True" style="text;html=1;strokeColor=none;fillColor=none;align=center;verticalAlign=middle;whiteSpace=wrap;rounded=0;" vertex="1" parent="1">
          <mxGeometry x="250.87" y="340" width="60" height="30" as="geometry" />
        </mxCell>
        <mxCell id="5yiq2FlFYGB0BDq1m2_S-22" style="edgeStyle=orthogonalEdgeStyle;rounded=0;orthogonalLoop=1;jettySize=auto;html=1;exitX=1;exitY=0.5;exitDx=0;exitDy=0;entryX=1;entryY=0;entryDx=0;entryDy=0;" edge="1" parent="1" source="5yiq2FlFYGB0BDq1m2_S-17" target="5yiq2FlFYGB0BDq1m2_S-20">
          <mxGeometry relative="1" as="geometry">
            <mxPoint x="640" y="310" as="targetPoint" />
            <Array as="points">
              <mxPoint x="640" y="370" />
              <mxPoint x="640" y="310" />
            </Array>
          </mxGeometry>
        </mxCell>
        <mxCell id="5yiq2FlFYGB0BDq1m2_S-17" value="Add i to list comprehension list" style="rounded=0;whiteSpace=wrap;html=1;" vertex="1" parent="1">
          <mxGeometry x="470" y="344.99" width="150" height="50.02" as="geometry" />
        </mxCell>
        <mxCell id="5yiq2FlFYGB0BDq1m2_S-19" value="True" style="text;html=1;strokeColor=none;fillColor=none;align=center;verticalAlign=middle;whiteSpace=wrap;rounded=0;" vertex="1" parent="1">
          <mxGeometry x="414" y="340" width="60" height="30" as="geometry" />
        </mxCell>
        <mxCell id="5yiq2FlFYGB0BDq1m2_S-20" value="False" style="text;html=1;strokeColor=none;fillColor=none;align=center;verticalAlign=middle;whiteSpace=wrap;rounded=0;" vertex="1" parent="1">
          <mxGeometry x="304" y="310" width="60" height="30" as="geometry" />
        </mxCell>
        <mxCell id="5yiq2FlFYGB0BDq1m2_S-25" value="" style="rounded=0;whiteSpace=wrap;html=1;glass=0;fillColor=none;dashed=1;" vertex="1" parent="1">
          <mxGeometry x="110" y="230" width="540" height="270" as="geometry" />
        </mxCell>
        <mxCell id="5yiq2FlFYGB0BDq1m2_S-21" value="False" style="text;html=1;strokeColor=none;fillColor=none;align=center;verticalAlign=middle;whiteSpace=wrap;rounded=0;" vertex="1" parent="1">
          <mxGeometry x="139.07" y="340" width="60" height="30" as="geometry" />
        </mxCell>
        <mxCell id="5yiq2FlFYGB0BDq1m2_S-27" style="edgeStyle=orthogonalEdgeStyle;rounded=0;orthogonalLoop=1;jettySize=auto;html=1;exitX=1;exitY=0.5;exitDx=0;exitDy=0;entryX=1;entryY=0.5;entryDx=0;entryDy=0;" edge="1" parent="1" source="5yiq2FlFYGB0BDq1m2_S-23" target="5yiq2FlFYGB0BDq1m2_S-29">
          <mxGeometry relative="1" as="geometry">
            <mxPoint x="304" y="540" as="targetPoint" />
            <Array as="points">
              <mxPoint x="480" y="465" />
              <mxPoint x="480" y="550" />
            </Array>
          </mxGeometry>
        </mxCell>
        <mxCell id="5yiq2FlFYGB0BDq1m2_S-23" value="Assign list comprehension list to&amp;nbsp;col_index" style="rounded=0;whiteSpace=wrap;html=1;" vertex="1" parent="1">
          <mxGeometry x="154" y="440" width="150" height="50.02" as="geometry" />
        </mxCell>
        <mxCell id="5yiq2FlFYGB0BDq1m2_S-26" value="&lt;font style=&quot;font-size: 10px;&quot;&gt;col_index = [i for i, d in enumerate(data.row_header) if dentist_role in d.lower()]&lt;/font&gt;" style="text;html=1;strokeColor=none;fillColor=none;align=center;verticalAlign=middle;whiteSpace=wrap;rounded=0;glass=0;dashed=1;" vertex="1" parent="1">
          <mxGeometry x="114" y="494" width="356" height="30" as="geometry" />
        </mxCell>
        <mxCell id="5yiq2FlFYGB0BDq1m2_S-28" value="" style="edgeStyle=orthogonalEdgeStyle;rounded=0;orthogonalLoop=1;jettySize=auto;html=1;" edge="1" parent="1" source="5yiq2FlFYGB0BDq1m2_S-29">
          <mxGeometry relative="1" as="geometry">
            <mxPoint x="228.3699999999999" y="610" as="targetPoint" />
          </mxGeometry>
        </mxCell>
        <mxCell id="5yiq2FlFYGB0BDq1m2_S-29" value="for each i, d in enumerate(data.row_header)" style="rounded=0;whiteSpace=wrap;html=1;" vertex="1" parent="1">
          <mxGeometry x="145.87" y="530" width="165" height="40" as="geometry" />
        </mxCell>
        <mxCell id="5yiq2FlFYGB0BDq1m2_S-43" style="edgeStyle=orthogonalEdgeStyle;rounded=0;orthogonalLoop=1;jettySize=auto;html=1;exitX=0;exitY=0.5;exitDx=0;exitDy=0;entryX=0;entryY=0.5;entryDx=0;entryDy=0;" edge="1" parent="1" source="5yiq2FlFYGB0BDq1m2_S-44" target="5yiq2FlFYGB0BDq1m2_S-51">
          <mxGeometry relative="1" as="geometry">
            <mxPoint x="144.07" y="730" as="targetPoint" />
            <Array as="points">
              <mxPoint x="144.07" y="650" />
              <mxPoint x="144.07" y="730" />
            </Array>
          </mxGeometry>
        </mxCell>
        <mxCell id="5yiq2FlFYGB0BDq1m2_S-44" value="i in&lt;br&gt;sequence&lt;br&gt;?" style="rhombus;whiteSpace=wrap;html=1;" vertex="1" parent="1">
          <mxGeometry x="188.44" y="610" width="80" height="80" as="geometry" />
        </mxCell>
        <mxCell id="5yiq2FlFYGB0BDq1m2_S-45" value="" style="edgeStyle=orthogonalEdgeStyle;rounded=0;orthogonalLoop=1;jettySize=auto;html=1;" edge="1" parent="1">
          <mxGeometry relative="1" as="geometry">
            <mxPoint x="268.3965217391304" y="650.0434782608695" as="sourcePoint" />
            <mxPoint x="304.1365760869565" y="650.0434782608695" as="targetPoint" />
          </mxGeometry>
        </mxCell>
        <mxCell id="5yiq2FlFYGB0BDq1m2_S-46" value="True" style="text;html=1;strokeColor=none;fillColor=none;align=center;verticalAlign=middle;whiteSpace=wrap;rounded=0;" vertex="1" parent="1">
          <mxGeometry x="250.94" y="620" width="60" height="30" as="geometry" />
        </mxCell>
        <mxCell id="5yiq2FlFYGB0BDq1m2_S-47" style="edgeStyle=orthogonalEdgeStyle;rounded=0;orthogonalLoop=1;jettySize=auto;html=1;" edge="1" parent="1" source="5yiq2FlFYGB0BDq1m2_S-48">
          <mxGeometry relative="1" as="geometry">
            <mxPoint x="228.07" y="590" as="targetPoint" />
            <Array as="points">
              <mxPoint x="584.0699999999999" y="650" />
            </Array>
          </mxGeometry>
        </mxCell>
        <mxCell id="5yiq2FlFYGB0BDq1m2_S-48" value="Add num_dentists[i] to list comprehension list" style="rounded=0;whiteSpace=wrap;html=1;" vertex="1" parent="1">
          <mxGeometry x="304.07" y="620" width="250" height="60" as="geometry" />
        </mxCell>
        <mxCell id="5yiq2FlFYGB0BDq1m2_S-49" value="False" style="text;html=1;strokeColor=none;fillColor=none;align=center;verticalAlign=middle;whiteSpace=wrap;rounded=0;" vertex="1" parent="1">
          <mxGeometry x="139.07" y="620" width="60" height="30" as="geometry" />
        </mxCell>
        <mxCell id="5yiq2FlFYGB0BDq1m2_S-50" value="" style="edgeStyle=orthogonalEdgeStyle;rounded=0;orthogonalLoop=1;jettySize=auto;html=1;" edge="1" parent="1" source="5yiq2FlFYGB0BDq1m2_S-51" target="5yiq2FlFYGB0BDq1m2_S-52">
          <mxGeometry relative="1" as="geometry" />
        </mxCell>
        <mxCell id="5yiq2FlFYGB0BDq1m2_S-51" value="Assign list comprehension list to num_dentists_public" style="rounded=0;whiteSpace=wrap;html=1;" vertex="1" parent="1">
          <mxGeometry x="168.44" y="700" width="165.63" height="60" as="geometry" />
        </mxCell>
        <mxCell id="5yiq2FlFYGB0BDq1m2_S-52" value="num_dentists_public = sum(num_dentists_public)" style="whiteSpace=wrap;html=1;rounded=0;" vertex="1" parent="1">
          <mxGeometry x="374.07" y="700" width="160" height="60" as="geometry" />
        </mxCell>
      </root>
    </mxGraphModel>
  </diagram>
</mxfile>
